<?xml version="1.0" encoding="UTF-8" standalone="no"?>
<svg
   viewBox="0 0 448 512"
   version="1.1"
   id="svg1"
   sodipodi:docname="plus.svg"
   inkscape:export-filename="../../../../../../run/media/winesap/DATA/repos/burnED/assets/plus.png"
   inkscape:export-xdpi="3.4285715"
   inkscape:export-ydpi="3.4285715"
   inkscape:version="1.3 (0e150ed6c4, 2023-07-21)"
   xmlns:inkscape="http://www.inkscape.org/namespaces/inkscape"
   xmlns:sodipodi="http://sodipodi.sourceforge.net/DTD/sodipodi-0.dtd"
   xmlns="http://www.w3.org/2000/svg"
   xmlns:svg="http://www.w3.org/2000/svg">
  <defs
     id="defs1" />
  <sodipodi:namedview
     id="namedview1"
     pagecolor="#ffffff"
     bordercolor="#000000"
     borderopacity="0.25"
     inkscape:showpageshadow="2"
     inkscape:pageopacity="0.0"
     inkscape:pagecheckerboard="0"
     inkscape:deskcolor="#d1d1d1"
     inkscape:zoom="1.53125"
     inkscape:cx="223.67347"
     inkscape:cy="256"
     inkscape:window-width="1920"
     inkscape:window-height="997"
     inkscape:window-x="0"
     inkscape:window-y="0"
     inkscape:window-maximized="1"
     inkscape:current-layer="svg1" />
  <!--! Font Awesome Free 6.4.0 by @fontawesome - https://fontawesome.com License - https://fontawesome.com/license/free (Icons: CC BY 4.0, Fonts: SIL OFL 1.1, Code: MIT License) Copyright 2023 Fonticons, Inc. -->
  <g
     id="g1">
    <rect
       style="fill:#ffffff;fill-opacity:0;stroke-width:12.2041;stroke-linecap:round;stroke-linejoin:round"
       id="rect1"
       width="448"
       height="448"
       x="0"
       y="30.693878" />
    <path
       d="m 200,344 v -64 h -64 c -13.3,0 -24,-10.7 -24,-24 0,-13.3 10.7,-24 24,-24 h 64 v -64 c 0,-13.3 10.7,-24 24,-24 13.3,0 24,10.7 24,24 v 64 h 64 c 13.3,0 24,10.7 24,24 0,13.3 -10.7,24 -24,24 h -64 v 64 c 0,13.3 -10.7,24 -24,24 -13.3,0 -24,-10.7 -24,-24 z"
       id="path1"
       sodipodi:nodetypes="scssscssscssscsss"
       style="fill:#ffffff" />
  </g>
</svg>
