<?xml version="1.0" encoding="UTF-8" standalone="no"?>
<svg
   viewBox="0 0 512 512"
   version="1.1"
   id="svg1"
   sodipodi:docname="xmark.svg"
   inkscape:export-filename="../../../../../../run/media/winesap/DATA/repos/burnED/assets/times-solid.png"
   inkscape:export-xdpi="3.4285715"
   inkscape:export-ydpi="3.4285715"
   inkscape:version="1.3 (0e150ed6c4, 2023-07-21)"
   xmlns:inkscape="http://www.inkscape.org/namespaces/inkscape"
   xmlns:sodipodi="http://sodipodi.sourceforge.net/DTD/sodipodi-0.dtd"
   xmlns="http://www.w3.org/2000/svg"
   xmlns:svg="http://www.w3.org/2000/svg">
  <defs
     id="defs1" />
  <sodipodi:namedview
     id="namedview1"
     pagecolor="#ffffff"
     bordercolor="#000000"
     borderopacity="0.25"
     inkscape:showpageshadow="2"
     inkscape:pageopacity="0.0"
     inkscape:pagecheckerboard="0"
     inkscape:deskcolor="#d1d1d1"
     inkscape:zoom="1.53125"
     inkscape:cx="255.67347"
     inkscape:cy="256"
     inkscape:window-width="1920"
     inkscape:window-height="997"
     inkscape:window-x="0"
     inkscape:window-y="0"
     inkscape:window-maximized="1"
     inkscape:current-layer="svg1" />
  <!--! Font Awesome Free 6.4.0 by @fontawesome - https://fontawesome.com License - https://fontawesome.com/license/free (Icons: CC BY 4.0, Fonts: SIL OFL 1.1, Code: MIT License) Copyright 2023 Fonticons, Inc. -->
  <g
     id="g1">
    <path
       d="m 135.0199,135.0199 c 13.35987,-13.35987 34.96305,-13.35987 48.18078,0 L 250,201.81922 316.79932,135.0199 c 13.35986,-13.35987 34.96304,-13.35987 48.18078,0 13.21774,13.35987 13.35987,34.96305 0,48.18078 l -66.79932,66.79933 66.79932,66.79931 c 13.35987,13.35986 13.35987,34.96305 0,48.18078 -13.35986,13.21774 -34.96304,13.35987 -48.18078,0 L 250,298.18079 183.20068,364.9801 c -13.35986,13.35987 -34.96306,13.35987 -48.18078,0 -13.21774,-13.35986 -13.35986,-34.96304 0,-48.18078 l 66.7993,-66.79931 -66.7993,-66.79933 c -13.35986,-13.35986 -13.35986,-34.96304 0,-48.18078 z"
       id="path1"
       sodipodi:nodetypes="cccssccssccssccsc"
       style="fill:#ffffff;stroke-width:1.42126" />
    <rect
       style="fill:#ffffff;fill-opacity:0;stroke-width:11.4159;stroke-linecap:round;stroke-linejoin:round"
       id="rect1"
       width="448"
       height="448"
       x="28.693878"
       y="28.734694" />
  </g>
</svg>
